<svg width="25" height="28" viewBox="0 0 25 28" fill="none" xmlns="http://www.w3.org/2000/svg">
<path fill-rule="evenodd" clip-rule="evenodd" d="M1.99199 11.4255C2.37285 9.21417 4.27243 7.59998 6.49383 7.59998H17.9349C20.1607 7.59998 22.0626 9.22034 22.4387 11.4369L24.3331 22.6028C24.8117 25.4234 22.6616 28 19.8293 28H4.57071C1.7338 28 -0.417506 25.4153 0.0688808 22.5913L1.99199 11.4255ZM6.49383 9.86141C5.36046 9.86141 4.39129 10.685 4.19697 11.8132L2.27386 22.979C2.0257 24.4198 3.12331 25.7385 4.57071 25.7385H19.8293C21.2743 25.7385 22.3713 24.4239 22.1272 22.9849L20.2328 11.819C20.0409 10.6881 19.0705 9.86141 17.9349 9.86141H6.49383Z" fill="white"/>
<path fill-rule="evenodd" clip-rule="evenodd" d="M17.2 4.6C17.2 7.14051 15.1405 9.2 12.6 9.2C10.0595 9.2 8 7.14051 8 4.6C8 2.05949 10.0595 0 12.6 0C15.1405 0 17.2 2.05949 17.2 4.6ZM12.6 6.9C13.8703 6.9 14.9 5.87026 14.9 4.6C14.9 3.32975 13.8703 2.3 12.6 2.3C11.3297 2.3 10.3 3.32975 10.3 4.6C10.3 5.87026 11.3297 6.9 12.6 6.9Z" fill="white"/>
<path d="M6.49538 21V14.4545H8.07741V17.2223H8.16371L10.3274 14.4545H12.1907L9.87038 17.3757L12.2322 21H10.3402L8.71023 18.4272L8.07741 19.2262V21H6.49538ZM16.7235 16.5927C16.6872 16.4585 16.634 16.3402 16.5637 16.2379C16.4933 16.1335 16.407 16.0451 16.3048 15.9727C16.2025 15.9002 16.0853 15.8459 15.9532 15.8097C15.8211 15.7713 15.6762 15.7521 15.5186 15.7521C15.2011 15.7521 14.9262 15.8288 14.694 15.9822C14.4639 16.1357 14.286 16.3594 14.1602 16.6534C14.0345 16.9453 13.9717 17.3001 13.9717 17.7177C13.9717 18.1374 14.0324 18.4954 14.1539 18.7915C14.2753 19.0877 14.4511 19.3136 14.6812 19.4691C14.9113 19.6246 15.1904 19.7024 15.5186 19.7024C15.8083 19.7024 16.0534 19.6555 16.2536 19.5618C16.4561 19.4659 16.6095 19.3306 16.7139 19.1559C16.8183 18.9812 16.8705 18.7756 16.8705 18.5391L17.1645 18.5742H15.5729V17.4205H18.395V18.2866C18.395 18.8725 18.2703 19.3743 18.021 19.7919C17.7739 20.2095 17.433 20.5302 16.9983 20.7539C16.5658 20.9776 16.0683 21.0895 15.5058 21.0895C14.8815 21.0895 14.3328 20.9542 13.8598 20.6836C13.3868 20.413 13.0182 20.0273 12.754 19.5266C12.4898 19.0238 12.3577 18.4272 12.3577 17.7369C12.3577 17.1999 12.4376 16.7237 12.5974 16.3082C12.7572 15.8906 12.9798 15.5369 13.2654 15.2472C13.553 14.9574 13.8854 14.7379 14.2625 14.5888C14.6418 14.4396 15.0498 14.3651 15.4866 14.3651C15.8659 14.3651 16.2185 14.4194 16.5445 14.5281C16.8726 14.6367 17.1624 14.7901 17.4138 14.9883C17.6673 15.1864 17.873 15.4219 18.0306 15.6946C18.1883 15.9673 18.2863 16.2667 18.3247 16.5927H16.7235Z" fill="white"/>
</svg>
